<?xml version="1.0" encoding="UTF-8"?>
<svg xmlns="http://www.w3.org/2000/svg" xmlns:xlink="http://www.w3.org/1999/xlink" id="a" viewBox="0 0 50 50">
  <defs>
    <style>.c{fill:url(#b);}</style>
    <linearGradient id="b" x1="1.08" y1="25" x2="48.92" y2="25" gradientUnits="userSpaceOnUse">
      <stop offset="0" stop-color="#94bf3a"></stop>
      <stop offset=".72" stop-color="#0a5689"></stop>
      <stop offset="1" stop-color="#243e87"></stop>
    </linearGradient>
  </defs>
  <path class="c" d="m11.97,44.75c9.46,6.27,22.05,5.33,30.83-4.08,7.2-7.72,8.35-20.57,1.87-29.51-3.59-4.95-8.5-8.03-14.37-9.31-6.7-1.46-13.07-.2-18.95,3.66-.52-.75-.92-1.42-1.43-2.01-.45-.52-1.01-.93-1.52-1.4-.37.7-.92,1.36-1.08,2.1-.43,1.97-.71,3.98-1.03,5.97-.35,2.21-.69,4.43-1.08,6.94,5.16-.31,9.93-.61,14.7-.9l.41-.57c-.94-1.1-1.87-2.2-2.81-3.29,3.97-3.16,13.54-2.46,17.85,1.68,4.79,4.6,6.02,12.12,3.08,17.64-3.21,6.04-10.85,9.8-17.95,7.63-6.45-1.97-10.62-8.32-10.42-16.69-2.66-.98-5.34-1.97-8.14-3-2.47,8.35.28,18.67,10.03,25.13Z"></path>
</svg>
