<?xml version="1.0" encoding="UTF-8"?>
<svg xmlns="http://www.w3.org/2000/svg" xmlns:xlink="http://www.w3.org/1999/xlink" id="a" viewBox="0 0 228.78 63.85">
  <defs>
    <style>.c{fill:url(#b);}.d{fill:#1a4696;}</style>
    <linearGradient id="b" x1="0" y1="31.92" x2="217.47" y2="31.92" gradientUnits="userSpaceOnUse">
      <stop offset="0" stop-color="#a2cd3a"></stop>
      <stop offset=".72" stop-color="#0a5697"></stop>
      <stop offset="1" stop-color="#243e95"></stop>
    </linearGradient>
  </defs>
  <path class="c" d="m30.48,16.73h9.57c-.37,1.76-.69,3.44-1.06,5.11-1.19,5.4-2.51,10.78-3.54,16.22-.34,1.82-.92,3.8.16,5.66,2.4,4.13,7.44,3.4,9.55.08,2-3.14,2.52-6.79,3.35-10.32.79-3.35,1.49-6.71,2.22-10.07.41-1.87.9-3.72,1.15-5.61.13-1,.58-1.15,1.39-1.14,2.77.02,5.54,0,8.47,0-1.08,5.13-2.13,10.28-3.27,15.4-.84,3.76-1.57,7.57-2.75,11.22-1.86,5.79-5.98,9.12-12.05,9.97-4.28.6-8.5.53-12.43-1.49-3.72-1.91-5.46-5.08-5.72-9.27-.24-3.91.87-7.57,1.61-11.3.86-4.28,1.88-8.52,2.85-12.78.12-.54.32-1.07.51-1.68Zm157.89,33.48c7.45,4.94,17.37,4.19,24.28-3.22,5.67-6.08,6.58-16.2,1.47-23.24-2.83-3.9-6.69-6.33-11.32-7.33-5.28-1.15-10.29-.16-14.92,2.88-.41-.59-.73-1.12-1.13-1.58-.35-.41-.79-.74-1.2-1.1-.29.55-.72,1.07-.85,1.65-.34,1.55-.56,3.13-.81,4.7-.28,1.74-.54,3.49-.85,5.47,4.06-.25,7.82-.48,11.58-.71l.32-.45c-.74-.86-1.47-1.73-2.21-2.59,3.12-2.49,10.66-1.94,14.06,1.32,3.77,3.62,4.74,9.55,2.43,13.89-2.53,4.75-8.54,7.72-14.14,6.01-5.08-1.55-8.36-6.55-8.2-13.14-2.09-.77-4.2-1.55-6.41-2.36-1.94,6.58.22,14.7,7.9,19.79Zm-129.72.36c-.09.33.32,1.11.62,1.18,2.41.57,4.83,1.21,7.28,1.47,2.28.24,4.61.14,6.9-.02,4.84-.34,9.13-1.91,12.11-6.01,2.27-3.12,3.11-8.79.52-11.93-1.12-1.35-2.68-2.42-4.21-3.32-2.06-1.21-4.33-2.07-6.45-3.18-1.16-.61-2.07-1.47-1.88-3.03.17-1.36,1.13-1.91,2.2-2.29.86-.31,1.8-.49,2.71-.56,3.07-.21,6.08.1,8.96,1.27.78.32,1.11,0,1.32-.67.5-1.58.89-3.19,1.51-4.72.52-1.27.15-1.74-1.1-1.99-5.15-1.04-10.36-1.51-15.53-.59-4.18.74-7.75,2.7-9.65,6.92-2.15,4.78-.5,10.71,4.96,12.78,1.99.75,3.93,1.68,5.77,2.73,1.23.71,2.63,1.62,2.44,3.34-.21,1.85-1.6,2.83-3.23,3.39-.96.33-2,.5-3.02.6-3.54.37-6.89-.4-10.25-2.08-.71,2.33-1.41,4.5-1.98,6.71Zm91.68-34.38c-8.17.04-16.33.08-24.5.14-.45,0-1.23.21-1.29.47-.54,2.14-.94,4.32-1.43,6.68h8.98c-2.1,9.73-4.16,19.26-6.25,28.94,3.26,0,6.4.02,9.55-.03.26,0,.67-.46.73-.76.66-3.05,1.24-6.11,1.89-9.16.8-3.77,1.63-7.54,2.46-11.31.56-2.55,1.12-5.1,1.68-7.65,2.87,0,5.54.03,8.21-.03.4,0,1.05-.35,1.13-.66.55-2.13.98-4.29,1.49-6.63-1.05,0-1.85,0-2.66,0Zm-30.53.13c-8.36.02-16.72.05-25.08.05-1.08,0-2.01-.05-1.86,1.5.05.55-.32,1.14-.44,1.72-.24,1.25-.44,2.51-.68,3.92h8.89c-2.05,9.7-4.06,19.26-6.09,28.87h9.89c1.37-6.1,2.75-12.14,4.07-18.19.66-3.05,1.23-6.12,1.83-9.18.21-1.09.65-1.66,1.97-1.59,2.57.14,5.15.04,7.75.04.5-2.38.98-4.68,1.5-7.16-.69,0-1.21,0-1.73,0Zm51.63,47.52c3.25-15.88,6.5-31.76,9.77-47.68h-10.01c-3.37,15.88-6.73,31.72-10.12,47.68h10.37ZM16.1,19.44c-1.43,6.89-2.79,13.8-4.26,20.69-.61,2.85-3.01,5.37-6.29,5.01-1.21-.13-2.4-.43-3.64-.65-.59,2.31-1.14,4.69-1.81,7.03-.22.77,0,1.01.66,1.13,1.53.28,3.05.68,4.59.81,3.17.25,6.31-.05,9.19-1.51,3.79-1.92,5.56-5.35,6.44-9.28,1.59-7.1,3.08-14.23,4.6-21.34.32-1.48.61-2.97.94-4.53h-9.64c-.26.87-.58,1.75-.77,2.66Zm150.81-3.33c-3.1,0-6.06-.05-9.01.05-.46.02-1.2.64-1.3,1.1-1.04,4.81-1.93,9.65-2.96,14.46-1.46,6.85-3,13.69-4.51,20.58h10c2.61-12.12,5.18-24.1,7.78-36.2Zm-7.52-3.69c.05-1.86.78-3.46,1.77-4.96,1.98-3.02,4.7-5,8.33-5.46,1.84-.23,1.91-.17,1.49-1.96-7.31-.62-14.44,7.31-13.51,13.94,1.85.1,1.89.1,1.93-1.57Zm2.13,1.24h1.81c.03-.43.05-.77.09-1.1.38-3.59,3.65-6.27,6.09-6.51,1.36-.14,1.92-.51,1.59-1.94-4.48-1.08-10.54,4.9-9.57,9.55Zm5.57-.35c.64-2.08,1.97-3.32,4.07-3.75,0-.53,0-.95,0-1.38,0-.13-.07-.27-.11-.4-3.75.61-5.78,2.75-5.54,6.21.65-.26,1.48-.36,1.58-.68Z"></path>
  <g>
    <path class="d" d="m216.01,18.45v-5.41h-1.87v-1.12h4.98v1.12h-1.91v5.41h-1.2Z"></path>
    <path class="d" d="m220.32,18.45v-6.53h1.14l2.38,3.86h-.65s2.4-3.86,2.4-3.86h1.08v6.53h-1.18v-2.44c0-.57.01-1.07.04-1.52s.08-.9.14-1.34l.15.39-2.02,3.13h-.63l-1.97-3.1.13-.43c.07.42.12.85.14,1.29.03.44.04.97.04,1.58v2.44h-1.19Z"></path>
  </g>
</svg>
